<?xml version="1.0" encoding="UTF-8"?>
<!DOCTYPE svg
  PUBLIC '-//W3C//DTD SVG 1.1//EN'
  'http://www.w3.org/Graphics/SVG/1.1/DTD/svg11.dtd'>
<svg version="1.1" xmlns="http://www.w3.org/2000/svg" width="84.900mm" height="23.764mm">
    <!--Autogenerated with python-barcode 0.14.0-->
    <g id="barcode_group">
        <rect width="100%" height="100%" style="fill:white"/>
        <rect x="6.400mm" y="1.000mm" width="0.200mm" height="15.000mm" style="fill:black;"/>
        <rect x="6.800mm" y="1.000mm" width="0.200mm" height="15.000mm" style="fill:black;"/>
        <rect x="7.200mm" y="1.000mm" width="0.500mm" height="15.000mm" style="fill:black;"/>
        <rect x="7.900mm" y="1.000mm" width="0.200mm" height="15.000mm" style="fill:black;"/>
        <rect x="8.600mm" y="1.000mm" width="0.200mm" height="15.000mm" style="fill:black;"/>
        <rect x="9.000mm" y="1.000mm" width="0.500mm" height="15.000mm" style="fill:black;"/>
        <rect x="9.700mm" y="1.000mm" width="0.200mm" height="15.000mm" style="fill:black;"/>
        <rect x="10.400mm" y="1.000mm" width="0.200mm" height="15.000mm" style="fill:black;"/>
        <rect x="10.800mm" y="1.000mm" width="0.500mm" height="15.000mm" style="fill:black;"/>
        <rect x="11.800mm" y="1.000mm" width="0.500mm" height="15.000mm" style="fill:black;"/>
        <rect x="12.500mm" y="1.000mm" width="0.200mm" height="15.000mm" style="fill:black;"/>
        <rect x="13.200mm" y="1.000mm" width="0.200mm" height="15.000mm" style="fill:black;"/>
        <rect x="13.600mm" y="1.000mm" width="0.200mm" height="15.000mm" style="fill:black;"/>
        <rect x="14.000mm" y="1.000mm" width="0.200mm" height="15.000mm" style="fill:black;"/>
        <rect x="14.400mm" y="1.000mm" width="0.500mm" height="15.000mm" style="fill:black;"/>
        <rect x="15.400mm" y="1.000mm" width="0.500mm" height="15.000mm" style="fill:black;"/>
        <rect x="16.400mm" y="1.000mm" width="0.200mm" height="15.000mm" style="fill:black;"/>
        <rect x="16.800mm" y="1.000mm" width="0.200mm" height="15.000mm" style="fill:black;"/>
        <rect x="17.200mm" y="1.000mm" width="0.200mm" height="15.000mm" style="fill:black;"/>
        <rect x="17.600mm" y="1.000mm" width="0.500mm" height="15.000mm" style="fill:black;"/>
        <rect x="18.600mm" y="1.000mm" width="0.500mm" height="15.000mm" style="fill:black;"/>
        <rect x="19.600mm" y="1.000mm" width="0.200mm" height="15.000mm" style="fill:black;"/>
        <rect x="20.000mm" y="1.000mm" width="0.200mm" height="15.000mm" style="fill:black;"/>
        <rect x="20.400mm" y="1.000mm" width="0.200mm" height="15.000mm" style="fill:black;"/>
        <rect x="20.800mm" y="1.000mm" width="0.500mm" height="15.000mm" style="fill:black;"/>
        <rect x="21.800mm" y="1.000mm" width="0.500mm" height="15.000mm" style="fill:black;"/>
        <rect x="22.800mm" y="1.000mm" width="0.200mm" height="15.000mm" style="fill:black;"/>
        <rect x="23.200mm" y="1.000mm" width="0.500mm" height="15.000mm" style="fill:black;"/>
        <rect x="23.900mm" y="1.000mm" width="0.200mm" height="15.000mm" style="fill:black;"/>
        <rect x="24.300mm" y="1.000mm" width="0.200mm" height="15.000mm" style="fill:black;"/>
        <rect x="25.000mm" y="1.000mm" width="0.200mm" height="15.000mm" style="fill:black;"/>
        <rect x="25.400mm" y="1.000mm" width="0.500mm" height="15.000mm" style="fill:black;"/>
        <rect x="26.400mm" y="1.000mm" width="0.200mm" height="15.000mm" style="fill:black;"/>
        <rect x="26.800mm" y="1.000mm" width="0.500mm" height="15.000mm" style="fill:black;"/>
        <rect x="27.500mm" y="1.000mm" width="0.200mm" height="15.000mm" style="fill:black;"/>
        <rect x="28.200mm" y="1.000mm" width="0.500mm" height="15.000mm" style="fill:black;"/>
        <rect x="29.200mm" y="1.000mm" width="0.200mm" height="15.000mm" style="fill:black;"/>
        <rect x="29.600mm" y="1.000mm" width="0.500mm" height="15.000mm" style="fill:black;"/>
        <rect x="30.300mm" y="1.000mm" width="0.500mm" height="15.000mm" style="fill:black;"/>
        <rect x="31.000mm" y="1.000mm" width="0.200mm" height="15.000mm" style="fill:black;"/>
        <rect x="31.700mm" y="1.000mm" width="0.200mm" height="15.000mm" style="fill:black;"/>
        <rect x="32.400mm" y="1.000mm" width="0.200mm" height="15.000mm" style="fill:black;"/>
        <rect x="32.800mm" y="1.000mm" width="0.200mm" height="15.000mm" style="fill:black;"/>
        <rect x="33.500mm" y="1.000mm" width="0.200mm" height="15.000mm" style="fill:black;"/>
        <rect x="33.900mm" y="1.000mm" width="0.500mm" height="15.000mm" style="fill:black;"/>
        <rect x="34.600mm" y="1.000mm" width="0.500mm" height="15.000mm" style="fill:black;"/>
        <rect x="35.300mm" y="1.000mm" width="0.200mm" height="15.000mm" style="fill:black;"/>
        <rect x="36.000mm" y="1.000mm" width="0.200mm" height="15.000mm" style="fill:black;"/>
        <rect x="36.700mm" y="1.000mm" width="0.500mm" height="15.000mm" style="fill:black;"/>
        <rect x="37.400mm" y="1.000mm" width="0.200mm" height="15.000mm" style="fill:black;"/>
        <rect x="37.800mm" y="1.000mm" width="0.500mm" height="15.000mm" style="fill:black;"/>
        <rect x="38.500mm" y="1.000mm" width="0.200mm" height="15.000mm" style="fill:black;"/>
        <rect x="39.200mm" y="1.000mm" width="0.200mm" height="15.000mm" style="fill:black;"/>
        <rect x="39.600mm" y="1.000mm" width="0.200mm" height="15.000mm" style="fill:black;"/>
        <rect x="40.000mm" y="1.000mm" width="0.500mm" height="15.000mm" style="fill:black;"/>
        <rect x="41.000mm" y="1.000mm" width="0.500mm" height="15.000mm" style="fill:black;"/>
        <rect x="42.000mm" y="1.000mm" width="0.200mm" height="15.000mm" style="fill:black;"/>
        <rect x="42.400mm" y="1.000mm" width="0.500mm" height="15.000mm" style="fill:black;"/>
        <rect x="43.100mm" y="1.000mm" width="0.200mm" height="15.000mm" style="fill:black;"/>
        <rect x="43.800mm" y="1.000mm" width="0.200mm" height="15.000mm" style="fill:black;"/>
        <rect x="44.200mm" y="1.000mm" width="0.200mm" height="15.000mm" style="fill:black;"/>
        <rect x="44.600mm" y="1.000mm" width="0.500mm" height="15.000mm" style="fill:black;"/>
        <rect x="45.600mm" y="1.000mm" width="0.200mm" height="15.000mm" style="fill:black;"/>
        <rect x="46.300mm" y="1.000mm" width="0.500mm" height="15.000mm" style="fill:black;"/>
        <rect x="47.000mm" y="1.000mm" width="0.200mm" height="15.000mm" style="fill:black;"/>
        <rect x="47.700mm" y="1.000mm" width="0.200mm" height="15.000mm" style="fill:black;"/>
        <rect x="48.100mm" y="1.000mm" width="0.500mm" height="15.000mm" style="fill:black;"/>
        <rect x="48.800mm" y="1.000mm" width="0.200mm" height="15.000mm" style="fill:black;"/>
        <rect x="49.200mm" y="1.000mm" width="0.200mm" height="15.000mm" style="fill:black;"/>
        <rect x="49.600mm" y="1.000mm" width="0.200mm" height="15.000mm" style="fill:black;"/>
        <rect x="50.000mm" y="1.000mm" width="0.500mm" height="15.000mm" style="fill:black;"/>
        <rect x="51.000mm" y="1.000mm" width="0.500mm" height="15.000mm" style="fill:black;"/>
        <rect x="52.000mm" y="1.000mm" width="0.500mm" height="15.000mm" style="fill:black;"/>
        <rect x="53.000mm" y="1.000mm" width="0.200mm" height="15.000mm" style="fill:black;"/>
        <rect x="53.400mm" y="1.000mm" width="0.200mm" height="15.000mm" style="fill:black;"/>
        <rect x="53.800mm" y="1.000mm" width="0.500mm" height="15.000mm" style="fill:black;"/>
        <rect x="54.800mm" y="1.000mm" width="0.200mm" height="15.000mm" style="fill:black;"/>
        <rect x="55.200mm" y="1.000mm" width="0.500mm" height="15.000mm" style="fill:black;"/>
        <rect x="56.200mm" y="1.000mm" width="0.200mm" height="15.000mm" style="fill:black;"/>
        <rect x="56.600mm" y="1.000mm" width="0.200mm" height="15.000mm" style="fill:black;"/>
        <rect x="57.000mm" y="1.000mm" width="0.500mm" height="15.000mm" style="fill:black;"/>
        <rect x="57.700mm" y="1.000mm" width="0.200mm" height="15.000mm" style="fill:black;"/>
        <rect x="58.400mm" y="1.000mm" width="0.200mm" height="15.000mm" style="fill:black;"/>
        <rect x="58.800mm" y="1.000mm" width="0.500mm" height="15.000mm" style="fill:black;"/>
        <rect x="59.800mm" y="1.000mm" width="0.200mm" height="15.000mm" style="fill:black;"/>
        <rect x="60.500mm" y="1.000mm" width="0.200mm" height="15.000mm" style="fill:black;"/>
        <rect x="60.900mm" y="1.000mm" width="0.500mm" height="15.000mm" style="fill:black;"/>
        <rect x="61.600mm" y="1.000mm" width="0.500mm" height="15.000mm" style="fill:black;"/>
        <rect x="62.600mm" y="1.000mm" width="0.500mm" height="15.000mm" style="fill:black;"/>
        <rect x="63.300mm" y="1.000mm" width="0.200mm" height="15.000mm" style="fill:black;"/>
        <rect x="63.700mm" y="1.000mm" width="0.200mm" height="15.000mm" style="fill:black;"/>
        <rect x="64.100mm" y="1.000mm" width="0.200mm" height="15.000mm" style="fill:black;"/>
        <rect x="64.800mm" y="1.000mm" width="0.200mm" height="15.000mm" style="fill:black;"/>
        <rect x="65.500mm" y="1.000mm" width="0.200mm" height="15.000mm" style="fill:black;"/>
        <rect x="65.900mm" y="1.000mm" width="0.500mm" height="15.000mm" style="fill:black;"/>
        <rect x="66.900mm" y="1.000mm" width="0.200mm" height="15.000mm" style="fill:black;"/>
        <rect x="67.300mm" y="1.000mm" width="0.500mm" height="15.000mm" style="fill:black;"/>
        <rect x="68.000mm" y="1.000mm" width="0.200mm" height="15.000mm" style="fill:black;"/>
        <rect x="68.400mm" y="1.000mm" width="0.500mm" height="15.000mm" style="fill:black;"/>
        <rect x="69.100mm" y="1.000mm" width="0.200mm" height="15.000mm" style="fill:black;"/>
        <rect x="69.800mm" y="1.000mm" width="0.200mm" height="15.000mm" style="fill:black;"/>
        <rect x="70.500mm" y="1.000mm" width="0.500mm" height="15.000mm" style="fill:black;"/>
        <rect x="71.200mm" y="1.000mm" width="0.200mm" height="15.000mm" style="fill:black;"/>
        <rect x="71.900mm" y="1.000mm" width="0.200mm" height="15.000mm" style="fill:black;"/>
        <rect x="72.300mm" y="1.000mm" width="0.500mm" height="15.000mm" style="fill:black;"/>
        <rect x="73.300mm" y="1.000mm" width="0.500mm" height="15.000mm" style="fill:black;"/>
        <rect x="74.000mm" y="1.000mm" width="0.200mm" height="15.000mm" style="fill:black;"/>
        <rect x="74.400mm" y="1.000mm" width="0.500mm" height="15.000mm" style="fill:black;"/>
        <rect x="75.100mm" y="1.000mm" width="0.200mm" height="15.000mm" style="fill:black;"/>
        <rect x="75.800mm" y="1.000mm" width="0.200mm" height="15.000mm" style="fill:black;"/>
        <rect x="76.200mm" y="1.000mm" width="0.500mm" height="15.000mm" style="fill:black;"/>
        <rect x="76.900mm" y="1.000mm" width="0.200mm" height="15.000mm" style="fill:black;"/>
        <rect x="77.600mm" y="1.000mm" width="0.500mm" height="15.000mm" style="fill:black;"/>
        <rect x="78.300mm" y="1.000mm" width="0.200mm" height="15.000mm" style="fill:black;"/>
        <text x="42.450mm" y="21.000mm" style="fill:black;font-size:10pt;text-anchor:middle;">82690000001490300191001225778881263145200582</text>
    </g>
</svg>
